<mxfile host="app.diagrams.net" agent="Mozilla/5.0 (Windows NT 10.0; Win64; x64) AppleWebKit/537.36 (KHTML, like Gecko) Chrome/127.0.0.0 Safari/537.36" version="24.7.6">
  <diagram name="Page-1" id="X1rqxnmHFlLH8JhJUH5Z">
    <mxGraphModel dx="1728" dy="983" grid="1" gridSize="10" guides="1" tooltips="1" connect="1" arrows="1" fold="1" page="1" pageScale="1" pageWidth="827" pageHeight="1169" math="0" shadow="0">
      <root>
        <mxCell id="0" />
        <mxCell id="1" parent="0" />
        <mxCell id="7bAZGS-DLlvW9_6kUcAw-26" value="" style="rounded=0;whiteSpace=wrap;html=1;fillColor=#dae8fc;strokeColor=#6c8ebf;" vertex="1" parent="1">
          <mxGeometry x="30" y="10" width="130" height="100" as="geometry" />
        </mxCell>
        <mxCell id="7bAZGS-DLlvW9_6kUcAw-1" value="&lt;b&gt;Client Library&lt;/b&gt;" style="rounded=0;whiteSpace=wrap;html=1;" vertex="1" parent="1">
          <mxGeometry x="40" y="40" width="110" height="60" as="geometry" />
        </mxCell>
        <mxCell id="7bAZGS-DLlvW9_6kUcAw-8" value="" style="group" vertex="1" connectable="0" parent="1">
          <mxGeometry x="220" y="27.5" width="80" height="85" as="geometry" />
        </mxCell>
        <mxCell id="7bAZGS-DLlvW9_6kUcAw-3" value="" style="shape=note;whiteSpace=wrap;html=1;backgroundOutline=1;darkOpacity=0.05;size=13;fillColor=#fff2cc;strokeColor=#d6b656;" vertex="1" parent="7bAZGS-DLlvW9_6kUcAw-8">
          <mxGeometry width="60" height="65" as="geometry" />
        </mxCell>
        <mxCell id="7bAZGS-DLlvW9_6kUcAw-6" value="" style="shape=note;whiteSpace=wrap;html=1;backgroundOutline=1;darkOpacity=0.05;size=13;fillColor=#fff2cc;strokeColor=#d6b656;" vertex="1" parent="7bAZGS-DLlvW9_6kUcAw-8">
          <mxGeometry x="10" y="10" width="60" height="65" as="geometry" />
        </mxCell>
        <mxCell id="7bAZGS-DLlvW9_6kUcAw-7" value="Telemetry&lt;div&gt;Data Files&lt;/div&gt;" style="shape=note;whiteSpace=wrap;html=1;backgroundOutline=1;darkOpacity=0.05;size=13;fillColor=#fff2cc;strokeColor=#d6b656;" vertex="1" parent="7bAZGS-DLlvW9_6kUcAw-8">
          <mxGeometry x="20" y="20" width="60" height="65" as="geometry" />
        </mxCell>
        <mxCell id="7bAZGS-DLlvW9_6kUcAw-9" style="edgeStyle=orthogonalEdgeStyle;rounded=0;orthogonalLoop=1;jettySize=auto;html=1;entryX=0;entryY=0.5;entryDx=0;entryDy=0;entryPerimeter=0;" edge="1" parent="1" source="7bAZGS-DLlvW9_6kUcAw-1" target="7bAZGS-DLlvW9_6kUcAw-6">
          <mxGeometry relative="1" as="geometry" />
        </mxCell>
        <mxCell id="7bAZGS-DLlvW9_6kUcAw-10" value="Produces" style="edgeLabel;html=1;align=center;verticalAlign=middle;resizable=0;points=[];" vertex="1" connectable="0" parent="7bAZGS-DLlvW9_6kUcAw-9">
          <mxGeometry x="-0.2989" y="-1" relative="1" as="geometry">
            <mxPoint x="12" y="9" as="offset" />
          </mxGeometry>
        </mxCell>
        <mxCell id="7bAZGS-DLlvW9_6kUcAw-12" value="&lt;b&gt;Viewer Application&lt;/b&gt;" style="rounded=0;whiteSpace=wrap;html=1;" vertex="1" parent="1">
          <mxGeometry x="380" y="50" width="120" height="60" as="geometry" />
        </mxCell>
        <mxCell id="7bAZGS-DLlvW9_6kUcAw-15" value="&lt;b&gt;Method 2: &lt;/b&gt;Stream to telemetry server" style="text;html=1;align=left;verticalAlign=middle;whiteSpace=wrap;rounded=0;" vertex="1" parent="1">
          <mxGeometry x="35" y="580" width="210" height="30" as="geometry" />
        </mxCell>
        <mxCell id="7bAZGS-DLlvW9_6kUcAw-27" value="&lt;span&gt;Application&lt;/span&gt;" style="text;html=1;align=center;verticalAlign=middle;whiteSpace=wrap;rounded=0;fontStyle=0" vertex="1" parent="1">
          <mxGeometry x="50" y="10" width="90" height="30" as="geometry" />
        </mxCell>
        <mxCell id="7bAZGS-DLlvW9_6kUcAw-28" value="" style="rounded=0;whiteSpace=wrap;html=1;fillColor=#dae8fc;strokeColor=#6c8ebf;" vertex="1" parent="1">
          <mxGeometry x="30" y="210" width="130" height="100" as="geometry" />
        </mxCell>
        <mxCell id="7bAZGS-DLlvW9_6kUcAw-48" style="edgeStyle=orthogonalEdgeStyle;rounded=0;orthogonalLoop=1;jettySize=auto;html=1;entryX=0.25;entryY=0;entryDx=0;entryDy=0;exitX=0.5;exitY=1;exitDx=0;exitDy=0;" edge="1" parent="1" source="7bAZGS-DLlvW9_6kUcAw-29" target="7bAZGS-DLlvW9_6kUcAw-46">
          <mxGeometry relative="1" as="geometry" />
        </mxCell>
        <mxCell id="7bAZGS-DLlvW9_6kUcAw-29" value="&lt;b&gt;Client Library&lt;/b&gt;" style="rounded=0;whiteSpace=wrap;html=1;" vertex="1" parent="1">
          <mxGeometry x="40" y="240" width="110" height="60" as="geometry" />
        </mxCell>
        <mxCell id="7bAZGS-DLlvW9_6kUcAw-39" value="&lt;span&gt;Application&lt;/span&gt;" style="text;html=1;align=center;verticalAlign=middle;whiteSpace=wrap;rounded=0;fontStyle=0" vertex="1" parent="1">
          <mxGeometry x="50" y="210" width="90" height="30" as="geometry" />
        </mxCell>
        <mxCell id="7bAZGS-DLlvW9_6kUcAw-40" value="" style="rounded=0;whiteSpace=wrap;html=1;fillColor=#dae8fc;strokeColor=#6c8ebf;" vertex="1" parent="1">
          <mxGeometry x="180" y="210" width="130" height="100" as="geometry" />
        </mxCell>
        <mxCell id="7bAZGS-DLlvW9_6kUcAw-49" style="edgeStyle=orthogonalEdgeStyle;rounded=0;orthogonalLoop=1;jettySize=auto;html=1;entryX=0.5;entryY=0;entryDx=0;entryDy=0;" edge="1" parent="1" source="7bAZGS-DLlvW9_6kUcAw-41" target="7bAZGS-DLlvW9_6kUcAw-46">
          <mxGeometry relative="1" as="geometry" />
        </mxCell>
        <mxCell id="7bAZGS-DLlvW9_6kUcAw-41" value="&lt;b&gt;Client Library&lt;/b&gt;" style="rounded=0;whiteSpace=wrap;html=1;" vertex="1" parent="1">
          <mxGeometry x="190" y="240" width="110" height="60" as="geometry" />
        </mxCell>
        <mxCell id="7bAZGS-DLlvW9_6kUcAw-42" value="&lt;span&gt;Application&lt;/span&gt;" style="text;html=1;align=center;verticalAlign=middle;whiteSpace=wrap;rounded=0;fontStyle=0" vertex="1" parent="1">
          <mxGeometry x="200" y="210" width="90" height="30" as="geometry" />
        </mxCell>
        <mxCell id="7bAZGS-DLlvW9_6kUcAw-43" value="" style="rounded=0;whiteSpace=wrap;html=1;fillColor=#dae8fc;strokeColor=#6c8ebf;" vertex="1" parent="1">
          <mxGeometry x="330" y="210" width="130" height="100" as="geometry" />
        </mxCell>
        <mxCell id="7bAZGS-DLlvW9_6kUcAw-51" style="edgeStyle=orthogonalEdgeStyle;rounded=0;orthogonalLoop=1;jettySize=auto;html=1;entryX=0.75;entryY=0;entryDx=0;entryDy=0;exitX=0.5;exitY=1;exitDx=0;exitDy=0;" edge="1" parent="1" source="7bAZGS-DLlvW9_6kUcAw-44" target="7bAZGS-DLlvW9_6kUcAw-46">
          <mxGeometry relative="1" as="geometry" />
        </mxCell>
        <mxCell id="7bAZGS-DLlvW9_6kUcAw-58" value="Streams Data" style="edgeLabel;html=1;align=center;verticalAlign=middle;resizable=0;points=[];" vertex="1" connectable="0" parent="7bAZGS-DLlvW9_6kUcAw-51">
          <mxGeometry x="-0.1448" relative="1" as="geometry">
            <mxPoint x="-104" y="10" as="offset" />
          </mxGeometry>
        </mxCell>
        <mxCell id="7bAZGS-DLlvW9_6kUcAw-44" value="&lt;b&gt;Client Library&lt;/b&gt;" style="rounded=0;whiteSpace=wrap;html=1;" vertex="1" parent="1">
          <mxGeometry x="340" y="240" width="110" height="60" as="geometry" />
        </mxCell>
        <mxCell id="7bAZGS-DLlvW9_6kUcAw-45" value="&lt;span&gt;Application&lt;/span&gt;" style="text;html=1;align=center;verticalAlign=middle;whiteSpace=wrap;rounded=0;fontStyle=0" vertex="1" parent="1">
          <mxGeometry x="350" y="210" width="90" height="30" as="geometry" />
        </mxCell>
        <mxCell id="7bAZGS-DLlvW9_6kUcAw-46" value="&lt;b&gt;Telemetry Server&lt;/b&gt;" style="rounded=0;whiteSpace=wrap;html=1;" vertex="1" parent="1">
          <mxGeometry x="185" y="380" width="120" height="60" as="geometry" />
        </mxCell>
        <mxCell id="7bAZGS-DLlvW9_6kUcAw-54" style="edgeStyle=orthogonalEdgeStyle;rounded=0;orthogonalLoop=1;jettySize=auto;html=1;entryX=0.25;entryY=1;entryDx=0;entryDy=0;exitX=0.5;exitY=0;exitDx=0;exitDy=0;" edge="1" parent="1" source="7bAZGS-DLlvW9_6kUcAw-52" target="7bAZGS-DLlvW9_6kUcAw-46">
          <mxGeometry relative="1" as="geometry" />
        </mxCell>
        <mxCell id="7bAZGS-DLlvW9_6kUcAw-52" value="&lt;b&gt;Viewer Application&lt;/b&gt;" style="rounded=0;whiteSpace=wrap;html=1;" vertex="1" parent="1">
          <mxGeometry x="35" y="510" width="120" height="60" as="geometry" />
        </mxCell>
        <mxCell id="7bAZGS-DLlvW9_6kUcAw-55" style="edgeStyle=orthogonalEdgeStyle;rounded=0;orthogonalLoop=1;jettySize=auto;html=1;entryX=0.75;entryY=1;entryDx=0;entryDy=0;exitX=0.5;exitY=0;exitDx=0;exitDy=0;" edge="1" parent="1" source="7bAZGS-DLlvW9_6kUcAw-53" target="7bAZGS-DLlvW9_6kUcAw-46">
          <mxGeometry relative="1" as="geometry" />
        </mxCell>
        <mxCell id="7bAZGS-DLlvW9_6kUcAw-59" value="Reads Data" style="edgeLabel;html=1;align=center;verticalAlign=middle;resizable=0;points=[];" vertex="1" connectable="0" parent="7bAZGS-DLlvW9_6kUcAw-55">
          <mxGeometry x="0.7524" y="2" relative="1" as="geometry">
            <mxPoint x="-28" y="26" as="offset" />
          </mxGeometry>
        </mxCell>
        <mxCell id="7bAZGS-DLlvW9_6kUcAw-53" value="&lt;b&gt;Viewer Application&lt;/b&gt;" style="rounded=0;whiteSpace=wrap;html=1;" vertex="1" parent="1">
          <mxGeometry x="335" y="510" width="120" height="60" as="geometry" />
        </mxCell>
        <mxCell id="7bAZGS-DLlvW9_6kUcAw-56" style="edgeStyle=orthogonalEdgeStyle;rounded=0;orthogonalLoop=1;jettySize=auto;html=1;entryX=0.983;entryY=0.502;entryDx=0;entryDy=0;entryPerimeter=0;" edge="1" parent="1" source="7bAZGS-DLlvW9_6kUcAw-12" target="7bAZGS-DLlvW9_6kUcAw-7">
          <mxGeometry relative="1" as="geometry" />
        </mxCell>
        <mxCell id="7bAZGS-DLlvW9_6kUcAw-57" value="Reads" style="edgeLabel;html=1;align=center;verticalAlign=middle;resizable=0;points=[];" vertex="1" connectable="0" parent="7bAZGS-DLlvW9_6kUcAw-56">
          <mxGeometry x="-0.1234" y="2" relative="1" as="geometry">
            <mxPoint x="-4" y="10" as="offset" />
          </mxGeometry>
        </mxCell>
        <mxCell id="7bAZGS-DLlvW9_6kUcAw-60" value="&lt;b&gt;Method 1: &lt;/b&gt;Stream to file" style="text;html=1;align=left;verticalAlign=middle;whiteSpace=wrap;rounded=0;" vertex="1" parent="1">
          <mxGeometry x="30" y="130" width="150" height="30" as="geometry" />
        </mxCell>
      </root>
    </mxGraphModel>
  </diagram>
</mxfile>
